# xmcd
#
# Track frame offsets: 
#        150
#        21536
#        40525
#        59136
#        74622
#        94294
#        107421
#        125394
#        144223
#        156469
#        173117
#        189439
#        209879
#        230259
#
# Disc length: 3600 seconds
#
# Revision: 0
# Processed by: cddbd v1.5.2PL0 Copyright (c) Steve Scherf et al.
# Submitted via: ExactAudioCopyFreeDBPlugin 1.0
#
DISCID=ce0e0e0e
DTITLE=Andrea Marquee - Zumbi
DYEAR=2000
DGENRE=Samba
TTITLE0=Zumbi
TTITLE1=You Don´t Know Me
TTITLE2=Juliana
TTITLE3=Cantos de Trabalho
TTITLE4=Balanço
TTITLE5=A Voz do Morto
TTITLE6=Sambadelic
TTITLE7=Agora Ninguém Chora Mais
TTITLE8=Banana Bacana
TTITLE9=Se Tivesse Dó
TTITLE10=O Que Aconteceu com Nosso Amor?
TTITLE11=Maldita Cama
TTITLE12=Ninguém é de Ninguém
TTITLE13=Hidden Track
EXTD=
EXTT0=
EXTT1=
EXTT2=
EXTT3=
EXTT4=
EXTT5=
EXTT6=
EXTT7=
EXTT8=
EXTT9=
EXTT10=
EXTT11=
EXTT12=
EXTT13=
PLAYORDER=
